<svg xmlns="http://www.w3.org/2000/svg" viewBox="0 0 80.34 80.34"><defs><style>.cls-1{fill:none;stroke:#231815;stroke-linejoin:round;stroke-width:4px;}</style></defs><title>アセット 13</title><g id="レイヤー_2" data-name="レイヤー 2"><g id="レイヤー_1-2" data-name="レイヤー 1"><path class="cls-1" d="M78,44.93a36.7,36.7,0,0,0,0-9.52c-2.73-1.29-6-2.46-8.29-3.78a30.31,30.31,0,0,0-2.66-6.4c.67-2.59,2.12-5.72,3.15-8.54a38.65,38.65,0,0,0-6.58-6.58c-2.82,1-5.95,2.48-8.54,3.15a30.31,30.31,0,0,0-6.4-2.66C47.39,8.3,46.22,5,44.93,2.31a36.7,36.7,0,0,0-9.52,0C34.12,5,33,8.3,31.63,10.6a30.31,30.31,0,0,0-6.4,2.66c-2.59-.67-5.72-2.12-8.54-3.15a38.65,38.65,0,0,0-6.58,6.58c1,2.82,2.48,5.95,3.15,8.54a30.31,30.31,0,0,0-2.66,6.4C8.3,33,5,34.12,2.31,35.41a36.7,36.7,0,0,0,0,9.52c2.73,1.29,6,2.46,8.29,3.78a30.31,30.31,0,0,0,2.66,6.4c-.67,2.59-2.12,5.72-3.15,8.54a38.65,38.65,0,0,0,6.58,6.58c2.82-1,5.95-2.48,8.54-3.15a30.31,30.31,0,0,0,6.4,2.66C33,72,34.12,75.3,35.41,78a36.7,36.7,0,0,0,9.52,0c1.29-2.73,2.46-6,3.78-8.29a30.31,30.31,0,0,0,6.4-2.66c2.59.67,5.72,2.12,8.54,3.15a38.65,38.65,0,0,0,6.58-6.58c-1-2.82-2.48-5.95-3.15-8.54a30.31,30.31,0,0,0,2.66-6.4C72,47.39,75.3,46.22,78,44.93Z"/><circle class="cls-1" cx="40.17" cy="40.17" r="11.2"/></g></g></svg>