<svg xmlns="http://www.w3.org/2000/svg" viewBox="0 0 154.51 220.89"><defs><style>.cls-1{fill:#fff;}</style></defs><title>アセット 3</title><g id="レイヤー_2" data-name="レイヤー 2"><g id="レイヤー_1-2" data-name="レイヤー 1"><path class="cls-1" d="M109.65,105.85c0-4.43,6.91-13,5-17-1.39-2.93-10.86-1.95-12-5-.39-1,2.33-2.93,2-4-.76-2.46-6.78-6.3-9-5-1.5.89-.67,5.39,0,7,.28.66,2.21,1.33,2,2-.73,2.44-7.64,3-10,2-1.66-.69-3.84-4.2-4-6-.2-2.45,4.65-6.62,4-9-.56-2.07-5.08-6-7-5-.88.46-.29,3,0,4s1.83,2.12,2,3c.25,1.25.22,4.63-1,5-2,.62-5.13-4.06-6-6-1.84-4.11,1.82-14.48-1-18-1.13-1.42-6-.51-7-2-2.31-3.27,1.95-12.1,1-16-.34-1.41-2.48-3.64-3-5-1.44-3.8,1.5-5.52-3-16-3-7-21-18-28-14-4.65,2.66,10.56,7.55,14,12,5.23,6.76,4.67,12.84-11,5-4.34-2.17,10.31,10.57,16,15,9,7,1,20.12-3,25-1,1.23-4.77,1-6,2-1.55,1.28-4,5-4,7,0,2.58,5,6.43,5,9,0,3.82-8,14-31-9-1.31-1.31,20.88,32.68,21,34,.16,1.62-17.3,6-26,0-7-4.81-4.91-20.2-9-20-3.07.15,5.67,24.08,6,25,1.37,3.76,37,12.57,39,16,2.19,3.65,14.38,3.8,15,8,.42,2.8-6.73,5.47-8,8-.79,1.58.67,6.41-1,7-3.83,1.37-9.91-7.5-12-11-1-1.77.07-8-2-8-2.85,0-3.54,8.2-3,11,1,5.25,9,13.45,13,17,4.78,4.24,15.62,12.93,22,13,1.49,0,11.34-8.49,9-2-9,25,12.48,40.74,14,42s-11.58-19.56-10-18c2.51,2.46,5-12.77,8-14,2.77-1.12,7.22,8.79,8,10,11,17-11.58,34.21-1,36,6.16,1,15-22,15-31,0-11.18-20.94-30.71-18.64-32.35,3.77-2.7,6.68-5.71,7.64-8.65,2.49-7.54-19.48-24.4-13-29,5.34-3.78,14.67,13.1,19,18,4.74,5.36,18,15.93,17,23-2.9,20-19.76-4.57-21-1s8,16.15,19,17c13,1,23-19.4,25-22,2.91-3.76,2.88-15.22,0-19s-17.31-.38-18-5c-1-6.45,18-8.84,22-14,4.5-5.82,3.34-26.06-1-32-4.86-6.66-15.56,1.84-22,7-3.59,2.89,2.43,16.71-2,18-1.69.5-8-5.17-8-8"/></g></g></svg>